<svg width="231" height="54" viewBox="0 0 231 54" fill="none" xmlns="http://www.w3.org/2000/svg">
<path d="M55.975 44.775H63.25V43.575H55.975V44.775ZM58.975 40.5V47.85H60.25V40.5H58.975ZM67.3035 36.3C66.7035 37.42 66.2635 38.605 65.9835 39.855C65.7135 41.105 65.5785 42.37 65.5785 43.65C65.5785 44.92 65.7135 46.18 65.9835 47.43C66.2635 48.68 66.7035 49.87 67.3035 51H68.4285C67.9085 49.87 67.5285 48.68 67.2885 47.43C67.0485 46.18 66.9285 44.92 66.9285 43.65C66.9285 42.37 67.0485 41.105 67.2885 39.855C67.5285 38.605 67.9085 37.42 68.4285 36.3H67.3035ZM70.0721 39.57L72.3971 38.88V48H73.6721V37.35L70.0721 38.25V39.57ZM77.2 51C77.8 49.87 78.235 48.68 78.505 47.43C78.785 46.18 78.925 44.92 78.925 43.65C78.925 42.37 78.785 41.105 78.505 39.855C78.235 38.605 77.8 37.42 77.2 36.3H76.075C76.605 37.42 76.985 38.605 77.215 39.855C77.455 41.105 77.575 42.37 77.575 43.65C77.575 44.92 77.455 46.18 77.215 47.43C76.985 48.68 76.605 49.87 76.075 51H77.2ZM85.9656 39.57L88.2906 38.88V48H89.5656V37.35L85.9656 38.25V39.57ZM91.8186 48H99.2286V46.8H94.4436L97.7886 43.395C98.1986 42.975 98.5336 42.5 98.7936 41.97C99.0536 41.44 99.1836 40.905 99.1836 40.365C99.1836 40.045 99.1186 39.71 98.9886 39.36C98.8586 39.01 98.6586 38.685 98.3886 38.385C98.1186 38.075 97.7736 37.825 97.3536 37.635C96.9336 37.435 96.4336 37.335 95.8536 37.335C95.1336 37.335 94.5136 37.495 93.9936 37.815C93.4836 38.125 93.0936 38.565 92.8236 39.135C92.5536 39.695 92.4186 40.35 92.4186 41.1H93.6936C93.6936 40.57 93.7786 40.115 93.9486 39.735C94.1186 39.345 94.3636 39.05 94.6836 38.85C95.0136 38.64 95.4036 38.535 95.8536 38.535C96.1736 38.535 96.4586 38.59 96.7086 38.7C96.9586 38.81 97.1686 38.955 97.3386 39.135C97.5186 39.315 97.6536 39.515 97.7436 39.735C97.8336 39.955 97.8786 40.18 97.8786 40.41C97.8786 40.69 97.8336 40.96 97.7436 41.22C97.6636 41.47 97.5386 41.72 97.3686 41.97C97.2086 42.21 97.0136 42.455 96.7836 42.705L91.8186 48ZM103.854 42.825C104.364 42.825 104.824 42.755 105.234 42.615C105.654 42.475 106.014 42.285 106.314 42.045C106.624 41.795 106.859 41.51 107.019 41.19C107.189 40.86 107.274 40.51 107.274 40.14C107.274 39.64 107.154 39.18 106.914 38.76C106.684 38.34 106.349 38 105.909 37.74C105.479 37.48 104.964 37.35 104.364 37.35C103.794 37.35 103.284 37.47 102.834 37.71C102.394 37.94 102.044 38.26 101.784 38.67C101.534 39.08 101.409 39.56 101.409 40.11H102.624C102.624 39.8 102.699 39.525 102.849 39.285C103.009 39.045 103.219 38.855 103.479 38.715C103.749 38.575 104.049 38.505 104.379 38.505C104.729 38.505 105.019 38.575 105.249 38.715C105.489 38.855 105.669 39.055 105.789 39.315C105.909 39.565 105.969 39.855 105.969 40.185C105.969 40.435 105.919 40.67 105.819 40.89C105.729 41.11 105.594 41.305 105.414 41.475C105.234 41.635 105.014 41.765 104.754 41.865C104.494 41.955 104.194 42 103.854 42V42.825ZM104.304 48.15C104.934 48.15 105.494 48.03 105.984 47.79C106.474 47.55 106.859 47.21 107.139 46.77C107.429 46.33 107.574 45.815 107.574 45.225C107.574 44.705 107.474 44.26 107.274 43.89C107.084 43.52 106.814 43.22 106.464 42.99C106.124 42.75 105.729 42.575 105.279 42.465C104.839 42.355 104.364 42.3 103.854 42.3V43.125C104.194 43.125 104.509 43.165 104.799 43.245C105.089 43.325 105.344 43.45 105.564 43.62C105.784 43.78 105.954 43.985 106.074 44.235C106.204 44.475 106.269 44.755 106.269 45.075C106.269 45.455 106.189 45.785 106.029 46.065C105.869 46.345 105.639 46.565 105.339 46.725C105.049 46.875 104.704 46.95 104.304 46.95C103.904 46.95 103.549 46.875 103.239 46.725C102.929 46.575 102.684 46.37 102.504 46.11C102.334 45.85 102.249 45.555 102.249 45.225H100.959C100.959 45.635 101.039 46.02 101.199 46.38C101.359 46.73 101.584 47.04 101.874 47.31C102.164 47.57 102.514 47.775 102.924 47.925C103.334 48.075 103.794 48.15 104.304 48.15ZM113.044 45.9H121.039V44.775H118.894H118.639H115.144L118.114 40.335V45.195V45.36V48H119.389V37.5H118.864L113.044 45.9ZM129.349 44.55C129.349 43.85 129.214 43.235 128.944 42.705C128.674 42.175 128.299 41.76 127.819 41.46C127.349 41.16 126.814 41.01 126.214 41.01C125.954 41.01 125.689 41.045 125.419 41.115C125.159 41.175 124.904 41.27 124.654 41.4L125.359 38.625H129.319V37.5H124.369L122.989 43.095C123.349 42.845 123.664 42.655 123.934 42.525C124.214 42.385 124.489 42.29 124.759 42.24C125.039 42.18 125.344 42.15 125.674 42.15C126.124 42.15 126.524 42.25 126.874 42.45C127.234 42.65 127.514 42.93 127.714 43.29C127.924 43.65 128.029 44.07 128.029 44.55C128.029 45.03 127.934 45.45 127.744 45.81C127.564 46.17 127.299 46.45 126.949 46.65C126.599 46.85 126.174 46.95 125.674 46.95C125.294 46.95 124.929 46.87 124.579 46.71C124.229 46.54 123.919 46.325 123.649 46.065C123.389 45.795 123.179 45.51 123.019 45.21L121.939 45.945C122.169 46.345 122.449 46.715 122.779 47.055C123.119 47.385 123.524 47.65 123.994 47.85C124.474 48.05 125.034 48.15 125.674 48.15C126.184 48.15 126.659 48.075 127.099 47.925C127.539 47.775 127.929 47.55 128.269 47.25C128.609 46.95 128.874 46.575 129.064 46.125C129.254 45.675 129.349 45.15 129.349 44.55ZM131.921 44.55C131.921 44.07 132.021 43.645 132.221 43.275C132.431 42.895 132.711 42.6 133.061 42.39C133.421 42.18 133.826 42.075 134.276 42.075C134.726 42.075 135.126 42.18 135.476 42.39C135.836 42.6 136.116 42.895 136.316 43.275C136.526 43.645 136.631 44.07 136.631 44.55C136.631 45.03 136.526 45.455 136.316 45.825C136.116 46.185 135.836 46.47 135.476 46.68C135.126 46.89 134.726 46.995 134.276 46.995C133.826 46.995 133.421 46.89 133.061 46.68C132.711 46.47 132.431 46.185 132.221 45.825C132.021 45.455 131.921 45.03 131.921 44.55ZM134.906 37.5L131.366 42.375C131.166 42.655 131.006 42.98 130.886 43.35C130.766 43.72 130.706 44.12 130.706 44.55C130.706 45.27 130.861 45.9 131.171 46.44C131.491 46.98 131.921 47.4 132.461 47.7C133.001 48 133.606 48.15 134.276 48.15C134.956 48.15 135.561 48 136.091 47.7C136.631 47.4 137.056 46.98 137.366 46.44C137.686 45.9 137.846 45.27 137.846 44.55C137.846 44.07 137.766 43.625 137.606 43.215C137.446 42.795 137.221 42.43 136.931 42.12C136.651 41.81 136.321 41.57 135.941 41.4C135.571 41.23 135.171 41.145 134.741 41.145C134.401 41.145 134.096 41.185 133.826 41.265C133.566 41.345 133.336 41.51 133.136 41.76L133.226 41.835L136.511 37.5H134.906ZM143.546 38.7H148.991L144.536 48H145.871L150.896 37.5H143.546V38.7ZM152.177 40.035C152.177 40.445 152.247 40.815 152.387 41.145C152.527 41.465 152.722 41.74 152.972 41.97C153.232 42.2 153.537 42.375 153.887 42.495C154.247 42.615 154.642 42.675 155.072 42.675C155.502 42.675 155.892 42.615 156.242 42.495C156.602 42.375 156.907 42.2 157.157 41.97C157.417 41.74 157.617 41.465 157.757 41.145C157.897 40.815 157.967 40.445 157.967 40.035C157.967 39.665 157.892 39.32 157.742 39C157.602 38.67 157.402 38.385 157.142 38.145C156.882 37.895 156.572 37.7 156.212 37.56C155.862 37.42 155.482 37.35 155.072 37.35C154.522 37.35 154.027 37.47 153.587 37.71C153.157 37.95 152.812 38.275 152.552 38.685C152.302 39.085 152.177 39.535 152.177 40.035ZM153.392 40.185C153.392 39.855 153.462 39.56 153.602 39.3C153.752 39.04 153.952 38.84 154.202 38.7C154.462 38.55 154.752 38.475 155.072 38.475C155.402 38.475 155.692 38.55 155.942 38.7C156.192 38.84 156.387 39.04 156.527 39.3C156.677 39.56 156.752 39.855 156.752 40.185C156.752 40.515 156.672 40.805 156.512 41.055C156.362 41.305 156.157 41.5 155.897 41.64C155.647 41.78 155.372 41.85 155.072 41.85C154.772 41.85 154.492 41.78 154.232 41.64C153.982 41.5 153.777 41.305 153.617 41.055C153.467 40.805 153.392 40.515 153.392 40.185ZM151.802 45.15C151.802 45.56 151.882 45.945 152.042 46.305C152.212 46.665 152.442 46.985 152.732 47.265C153.032 47.545 153.377 47.765 153.767 47.925C154.167 48.075 154.602 48.15 155.072 48.15C155.542 48.15 155.972 48.075 156.362 47.925C156.762 47.765 157.107 47.545 157.397 47.265C157.697 46.985 157.927 46.665 158.087 46.305C158.257 45.945 158.342 45.56 158.342 45.15C158.342 44.67 158.252 44.245 158.072 43.875C157.902 43.495 157.662 43.18 157.352 42.93C157.052 42.67 156.702 42.475 156.302 42.345C155.912 42.215 155.502 42.15 155.072 42.15C154.642 42.15 154.227 42.215 153.827 42.345C153.437 42.475 153.087 42.67 152.777 42.93C152.477 43.18 152.237 43.495 152.057 43.875C151.887 44.245 151.802 44.67 151.802 45.15ZM153.017 45C153.017 44.62 153.112 44.28 153.302 43.98C153.502 43.67 153.757 43.425 154.067 43.245C154.387 43.065 154.722 42.975 155.072 42.975C155.422 42.975 155.752 43.065 156.062 43.245C156.382 43.425 156.637 43.67 156.827 43.98C157.027 44.28 157.127 44.62 157.127 45C157.127 45.43 157.027 45.795 156.827 46.095C156.637 46.395 156.382 46.625 156.062 46.785C155.752 46.945 155.422 47.025 155.072 47.025C154.722 47.025 154.387 46.945 154.067 46.785C153.757 46.625 153.502 46.395 153.302 46.095C153.112 45.795 153.017 45.43 153.017 45ZM165.84 40.95C165.84 41.43 165.735 41.855 165.525 42.225C165.325 42.595 165.045 42.89 164.685 43.11C164.335 43.32 163.935 43.425 163.485 43.425C163.035 43.425 162.63 43.32 162.27 43.11C161.92 42.89 161.64 42.595 161.43 42.225C161.23 41.855 161.13 41.43 161.13 40.95C161.13 40.47 161.23 40.05 161.43 39.69C161.64 39.32 161.92 39.03 162.27 38.82C162.63 38.61 163.035 38.505 163.485 38.505C163.935 38.505 164.335 38.61 164.685 38.82C165.045 39.03 165.325 39.32 165.525 39.69C165.735 40.05 165.84 40.47 165.84 40.95ZM162.855 48L166.395 43.125C166.595 42.845 166.755 42.52 166.875 42.15C166.995 41.78 167.055 41.38 167.055 40.95C167.055 40.23 166.895 39.6 166.575 39.06C166.265 38.52 165.84 38.1 165.3 37.8C164.77 37.5 164.165 37.35 163.485 37.35C162.815 37.35 162.21 37.5 161.67 37.8C161.13 38.1 160.7 38.52 160.38 39.06C160.07 39.6 159.915 40.23 159.915 40.95C159.915 41.43 159.995 41.88 160.155 42.3C160.315 42.71 160.535 43.07 160.815 43.38C161.105 43.69 161.435 43.93 161.805 44.1C162.185 44.27 162.59 44.355 163.02 44.355C163.36 44.355 163.66 44.315 163.92 44.235C164.19 44.155 164.425 43.99 164.625 43.74L164.535 43.665L161.25 48H162.855ZM169.683 42.75C169.683 42.14 169.743 41.58 169.863 41.07C169.983 40.55 170.158 40.105 170.388 39.735C170.618 39.355 170.893 39.065 171.213 38.865C171.543 38.655 171.908 38.55 172.308 38.55C172.628 38.55 172.923 38.62 173.193 38.76C173.473 38.89 173.718 39.08 173.928 39.33C174.148 39.57 174.328 39.865 174.468 40.215C174.618 40.565 174.733 40.955 174.813 41.385C174.893 41.805 174.933 42.26 174.933 42.75C174.933 43.36 174.873 43.925 174.753 44.445C174.633 44.955 174.458 45.4 174.228 45.78C173.998 46.15 173.723 46.44 173.403 46.65C173.083 46.85 172.718 46.95 172.308 46.95C171.988 46.95 171.688 46.885 171.408 46.755C171.138 46.615 170.893 46.425 170.673 46.185C170.463 45.935 170.283 45.635 170.133 45.285C169.993 44.935 169.883 44.55 169.803 44.13C169.723 43.7 169.683 43.24 169.683 42.75ZM168.408 42.75C168.408 43.38 168.468 43.97 168.588 44.52C168.708 45.06 168.883 45.555 169.113 46.005C169.343 46.455 169.618 46.84 169.938 47.16C170.258 47.48 170.618 47.725 171.018 47.895C171.418 48.065 171.848 48.15 172.308 48.15C172.888 48.15 173.413 48.02 173.883 47.76C174.363 47.49 174.773 47.115 175.113 46.635C175.463 46.145 175.733 45.57 175.923 44.91C176.113 44.25 176.208 43.53 176.208 42.75C176.208 42.12 176.148 41.535 176.028 40.995C175.908 40.445 175.733 39.945 175.503 39.495C175.273 39.045 174.998 38.66 174.678 38.34C174.358 38.02 173.998 37.775 173.598 37.605C173.198 37.435 172.768 37.35 172.308 37.35C171.728 37.35 171.198 37.485 170.718 37.755C170.248 38.015 169.838 38.39 169.488 38.88C169.148 39.36 168.883 39.93 168.693 40.59C168.503 41.25 168.408 41.97 168.408 42.75Z" fill="#041E42"/>
<path d="M58.12 9.61L61.315 15.025L64.525 9.61L65.245 16H67.075L65.635 4.975L61.315 12.1L57.01 4.975L55.57 16H57.4L58.12 9.61ZM68.137 12.55C68.137 13.25 68.297 13.875 68.617 14.425C68.947 14.965 69.392 15.39 69.952 15.7C70.522 16 71.157 16.15 71.857 16.15C72.567 16.15 73.202 16 73.762 15.7C74.322 15.39 74.762 14.965 75.082 14.425C75.412 13.875 75.577 13.25 75.577 12.55C75.577 11.84 75.412 11.215 75.082 10.675C74.762 10.135 74.322 9.715 73.762 9.415C73.202 9.105 72.567 8.95 71.857 8.95C71.157 8.95 70.522 9.105 69.952 9.415C69.392 9.715 68.947 10.135 68.617 10.675C68.297 11.215 68.137 11.84 68.137 12.55ZM69.802 12.55C69.802 12.12 69.892 11.745 70.072 11.425C70.252 11.095 70.497 10.84 70.807 10.66C71.117 10.47 71.467 10.375 71.857 10.375C72.247 10.375 72.597 10.47 72.907 10.66C73.217 10.84 73.462 11.095 73.642 11.425C73.822 11.745 73.912 12.12 73.912 12.55C73.912 12.98 73.822 13.36 73.642 13.69C73.462 14.01 73.217 14.265 72.907 14.455C72.597 14.635 72.247 14.725 71.857 14.725C71.467 14.725 71.117 14.635 70.807 14.455C70.497 14.265 70.252 14.01 70.072 13.69C69.892 13.36 69.802 12.98 69.802 12.55ZM81.5541 11.8V16H83.2191V11.62C83.2191 11.06 83.1241 10.585 82.9341 10.195C82.7541 9.795 82.4841 9.49 82.1241 9.28C81.7741 9.06 81.3391 8.95 80.8191 8.95C80.3491 8.95 79.9391 9.05 79.5891 9.25C79.2391 9.45 78.9541 9.755 78.7341 10.165V9.1H77.1141V16H78.7341V11.8C78.7341 11.49 78.7991 11.22 78.9291 10.99C79.0591 10.76 79.2391 10.58 79.4691 10.45C79.7091 10.32 79.9791 10.255 80.2791 10.255C80.5691 10.255 80.8091 10.315 80.9991 10.435C81.1891 10.555 81.3291 10.73 81.4191 10.96C81.5091 11.18 81.5541 11.46 81.5541 11.8ZM90.4779 4.3V16H92.1129V4.3H90.4779ZM84.7629 12.55C84.7629 13.3 84.9179 13.945 85.2279 14.485C85.5379 15.025 85.9479 15.44 86.4579 15.73C86.9679 16.01 87.5229 16.15 88.1229 16.15C88.5529 16.15 88.9479 16.07 89.3079 15.91C89.6679 15.74 89.9779 15.5 90.2379 15.19C90.4979 14.88 90.6979 14.505 90.8379 14.065C90.9879 13.615 91.0629 13.11 91.0629 12.55C91.0629 11.99 90.9879 11.49 90.8379 11.05C90.6979 10.6 90.4979 10.22 90.2379 9.91C89.9779 9.6 89.6679 9.365 89.3079 9.205C88.9479 9.035 88.5529 8.95 88.1229 8.95C87.5229 8.95 86.9679 9.095 86.4579 9.385C85.9479 9.665 85.5379 10.075 85.2279 10.615C84.9179 11.145 84.7629 11.79 84.7629 12.55ZM86.4429 12.55C86.4429 12.09 86.5379 11.7 86.7279 11.38C86.9179 11.05 87.1679 10.8 87.4779 10.63C87.7979 10.45 88.1429 10.36 88.5129 10.36C88.7429 10.36 88.9729 10.41 89.2029 10.51C89.4429 10.6 89.6579 10.74 89.8479 10.93C90.0379 11.11 90.1879 11.34 90.2979 11.62C90.4179 11.89 90.4779 12.2 90.4779 12.55C90.4779 12.9 90.4179 13.215 90.2979 13.495C90.1879 13.765 90.0379 13.995 89.8479 14.185C89.6579 14.365 89.4429 14.505 89.2029 14.605C88.9729 14.695 88.7429 14.74 88.5129 14.74C88.1429 14.74 87.7979 14.655 87.4779 14.485C87.1679 14.305 86.9179 14.055 86.7279 13.735C86.5379 13.405 86.4429 13.01 86.4429 12.55ZM95.1263 13.855C95.1263 13.635 95.1763 13.45 95.2763 13.3C95.3763 13.15 95.5313 13.035 95.7413 12.955C95.9613 12.865 96.2413 12.82 96.5813 12.82C96.9713 12.82 97.3413 12.87 97.6913 12.97C98.0413 13.07 98.3713 13.23 98.6813 13.45V12.625C98.5913 12.515 98.4363 12.395 98.2163 12.265C97.9963 12.125 97.7163 12.005 97.3763 11.905C97.0463 11.805 96.6513 11.755 96.1913 11.755C95.6213 11.755 95.1363 11.845 94.7363 12.025C94.3363 12.205 94.0263 12.46 93.8063 12.79C93.5963 13.11 93.4913 13.495 93.4913 13.945C93.4913 14.415 93.6013 14.815 93.8213 15.145C94.0413 15.475 94.3363 15.725 94.7063 15.895C95.0763 16.065 95.4763 16.15 95.9063 16.15C96.3063 16.15 96.6963 16.08 97.0763 15.94C97.4663 15.79 97.7863 15.57 98.0363 15.28C98.2963 14.98 98.4263 14.61 98.4263 14.17L98.1863 13.27C98.1863 13.62 98.1063 13.92 97.9463 14.17C97.7863 14.42 97.5713 14.61 97.3013 14.74C97.0313 14.87 96.7363 14.935 96.4163 14.935C96.1663 14.935 95.9413 14.895 95.7413 14.815C95.5513 14.725 95.4013 14.6 95.2913 14.44C95.1813 14.28 95.1263 14.085 95.1263 13.855ZM94.6163 10.9C94.7163 10.83 94.8663 10.745 95.0663 10.645C95.2763 10.545 95.5213 10.455 95.8013 10.375C96.0813 10.295 96.3863 10.255 96.7163 10.255C96.9263 10.255 97.1213 10.275 97.3013 10.315C97.4813 10.355 97.6363 10.42 97.7663 10.51C97.9063 10.6 98.0113 10.72 98.0813 10.87C98.1513 11.01 98.1863 11.185 98.1863 11.395V16H99.7763V11.08C99.7763 10.62 99.6513 10.235 99.4013 9.925C99.1513 9.605 98.8063 9.36 98.3663 9.19C97.9363 9.02 97.4363 8.935 96.8663 8.935C96.2263 8.935 95.6613 9.025 95.1713 9.205C94.6813 9.385 94.2763 9.57 93.9563 9.76L94.6163 10.9ZM107.697 9.1H105.957L103.797 14.515L104.562 14.56L102.357 9.1H100.497L103.287 15.19L101.472 19.3H103.197L107.697 9.1ZM107.707 13.165H110.782V11.71H107.707V13.165ZM113.105 7.09H117.8V5.5H113.105V7.09ZM113.105 11.26H117.65V9.715H113.105V11.26ZM112.01 5.5V16H113.75V5.5H112.01ZM121.009 9.1H119.404V16H121.009V9.1ZM123.064 10.84L123.859 9.46C123.699 9.28 123.509 9.15 123.289 9.07C123.069 8.99 122.834 8.95 122.584 8.95C122.234 8.95 121.894 9.075 121.564 9.325C121.244 9.575 120.979 9.915 120.769 10.345C120.569 10.765 120.469 11.25 120.469 11.8L121.009 12.115C121.009 11.785 121.049 11.495 121.129 11.245C121.209 10.995 121.329 10.805 121.489 10.675C121.659 10.535 121.879 10.465 122.149 10.465C122.349 10.465 122.514 10.5 122.644 10.57C122.774 10.63 122.914 10.72 123.064 10.84ZM124.896 6.355C124.896 6.635 124.996 6.87 125.196 7.06C125.396 7.25 125.636 7.345 125.916 7.345C126.206 7.345 126.446 7.25 126.636 7.06C126.836 6.87 126.936 6.635 126.936 6.355C126.936 6.075 126.836 5.84 126.636 5.65C126.446 5.46 126.206 5.365 125.916 5.365C125.636 5.365 125.396 5.46 125.196 5.65C124.996 5.84 124.896 6.075 124.896 6.355ZM125.121 9.1V16H126.711V9.1H125.121ZM134.13 4.3V16H135.765V4.3H134.13ZM128.415 12.55C128.415 13.3 128.57 13.945 128.88 14.485C129.19 15.025 129.6 15.44 130.11 15.73C130.62 16.01 131.175 16.15 131.775 16.15C132.205 16.15 132.6 16.07 132.96 15.91C133.32 15.74 133.63 15.5 133.89 15.19C134.15 14.88 134.35 14.505 134.49 14.065C134.64 13.615 134.715 13.11 134.715 12.55C134.715 11.99 134.64 11.49 134.49 11.05C134.35 10.6 134.15 10.22 133.89 9.91C133.63 9.6 133.32 9.365 132.96 9.205C132.6 9.035 132.205 8.95 131.775 8.95C131.175 8.95 130.62 9.095 130.11 9.385C129.6 9.665 129.19 10.075 128.88 10.615C128.57 11.145 128.415 11.79 128.415 12.55ZM130.095 12.55C130.095 12.09 130.19 11.7 130.38 11.38C130.57 11.05 130.82 10.8 131.13 10.63C131.45 10.45 131.795 10.36 132.165 10.36C132.395 10.36 132.625 10.41 132.855 10.51C133.095 10.6 133.31 10.74 133.5 10.93C133.69 11.11 133.84 11.34 133.95 11.62C134.07 11.89 134.13 12.2 134.13 12.55C134.13 12.9 134.07 13.215 133.95 13.495C133.84 13.765 133.69 13.995 133.5 14.185C133.31 14.365 133.095 14.505 132.855 14.605C132.625 14.695 132.395 14.74 132.165 14.74C131.795 14.74 131.45 14.655 131.13 14.485C130.82 14.305 130.57 14.055 130.38 13.735C130.19 13.405 130.095 13.01 130.095 12.55ZM138.779 13.855C138.779 13.635 138.829 13.45 138.929 13.3C139.029 13.15 139.184 13.035 139.394 12.955C139.614 12.865 139.894 12.82 140.234 12.82C140.624 12.82 140.994 12.87 141.344 12.97C141.694 13.07 142.024 13.23 142.334 13.45V12.625C142.244 12.515 142.089 12.395 141.869 12.265C141.649 12.125 141.369 12.005 141.029 11.905C140.699 11.805 140.304 11.755 139.844 11.755C139.274 11.755 138.789 11.845 138.389 12.025C137.989 12.205 137.679 12.46 137.459 12.79C137.249 13.11 137.144 13.495 137.144 13.945C137.144 14.415 137.254 14.815 137.474 15.145C137.694 15.475 137.989 15.725 138.359 15.895C138.729 16.065 139.129 16.15 139.559 16.15C139.959 16.15 140.349 16.08 140.729 15.94C141.119 15.79 141.439 15.57 141.689 15.28C141.949 14.98 142.079 14.61 142.079 14.17L141.839 13.27C141.839 13.62 141.759 13.92 141.599 14.17C141.439 14.42 141.224 14.61 140.954 14.74C140.684 14.87 140.389 14.935 140.069 14.935C139.819 14.935 139.594 14.895 139.394 14.815C139.204 14.725 139.054 14.6 138.944 14.44C138.834 14.28 138.779 14.085 138.779 13.855ZM138.269 10.9C138.369 10.83 138.519 10.745 138.719 10.645C138.929 10.545 139.174 10.455 139.454 10.375C139.734 10.295 140.039 10.255 140.369 10.255C140.579 10.255 140.774 10.275 140.954 10.315C141.134 10.355 141.289 10.42 141.419 10.51C141.559 10.6 141.664 10.72 141.734 10.87C141.804 11.01 141.839 11.185 141.839 11.395V16H143.429V11.08C143.429 10.62 143.304 10.235 143.054 9.925C142.804 9.605 142.459 9.36 142.019 9.19C141.589 9.02 141.089 8.935 140.519 8.935C139.879 8.935 139.314 9.025 138.824 9.205C138.334 9.385 137.929 9.57 137.609 9.76L138.269 10.9ZM151.349 9.1H149.609L147.449 14.515L148.214 14.56L146.009 9.1H144.149L146.939 15.19L145.124 19.3H146.849L151.349 9.1ZM152.544 15.235C152.544 15.515 152.644 15.76 152.844 15.97C153.044 16.18 153.294 16.285 153.594 16.285C153.894 16.285 154.144 16.18 154.344 15.97C154.554 15.76 154.659 15.515 154.659 15.235C154.659 14.945 154.554 14.7 154.344 14.5C154.144 14.29 153.894 14.185 153.594 14.185C153.294 14.185 153.044 14.29 152.844 14.5C152.644 14.7 152.544 14.945 152.544 15.235ZM152.544 9.565C152.544 9.845 152.644 10.09 152.844 10.3C153.044 10.51 153.294 10.615 153.594 10.615C153.894 10.615 154.144 10.51 154.344 10.3C154.554 10.09 154.659 9.845 154.659 9.565C154.659 9.275 154.554 9.03 154.344 8.83C154.144 8.62 153.894 8.515 153.594 8.515C153.294 8.515 153.044 8.62 152.844 8.83C152.644 9.03 152.544 9.275 152.544 9.565ZM162.736 10.75C162.736 10.18 162.791 9.665 162.901 9.205C163.011 8.735 163.166 8.33 163.366 7.99C163.566 7.65 163.811 7.39 164.101 7.21C164.391 7.02 164.716 6.925 165.076 6.925C165.366 6.925 165.631 6.985 165.871 7.105C166.121 7.225 166.341 7.4 166.531 7.63C166.721 7.85 166.881 8.115 167.011 8.425C167.151 8.735 167.256 9.09 167.326 9.49C167.396 9.88 167.431 10.3 167.431 10.75C167.431 11.32 167.376 11.84 167.266 12.31C167.156 12.77 166.996 13.17 166.786 13.51C166.586 13.85 166.341 14.115 166.051 14.305C165.761 14.485 165.436 14.575 165.076 14.575C164.786 14.575 164.521 14.515 164.281 14.395C164.041 14.275 163.826 14.105 163.636 13.885C163.446 13.655 163.281 13.385 163.141 13.075C163.011 12.765 162.911 12.415 162.841 12.025C162.771 11.625 162.736 11.2 162.736 10.75ZM160.996 10.75C160.996 11.4 161.056 12.005 161.176 12.565C161.306 13.115 161.491 13.615 161.731 14.065C161.971 14.505 162.256 14.885 162.586 15.205C162.926 15.515 163.301 15.755 163.711 15.925C164.131 16.085 164.586 16.165 165.076 16.165C165.696 16.165 166.256 16.04 166.756 15.79C167.256 15.53 167.686 15.16 168.046 14.68C168.406 14.2 168.681 13.63 168.871 12.97C169.071 12.3 169.171 11.56 169.171 10.75C169.171 10.1 169.106 9.5 168.976 8.95C168.856 8.39 168.676 7.89 168.436 7.45C168.196 7 167.906 6.62 167.566 6.31C167.236 5.99 166.861 5.75 166.441 5.59C166.021 5.42 165.566 5.335 165.076 5.335C164.466 5.335 163.911 5.465 163.411 5.725C162.911 5.975 162.481 6.34 162.121 6.82C161.761 7.3 161.481 7.875 161.281 8.545C161.091 9.205 160.996 9.94 160.996 10.75ZM170.941 8.035C170.941 8.475 171.021 8.865 171.181 9.205C171.351 9.535 171.581 9.815 171.871 10.045C172.161 10.275 172.496 10.45 172.876 10.57C173.256 10.69 173.661 10.75 174.091 10.75C174.521 10.75 174.926 10.69 175.306 10.57C175.686 10.45 176.021 10.275 176.311 10.045C176.611 9.815 176.841 9.535 177.001 9.205C177.171 8.865 177.256 8.475 177.256 8.035C177.256 7.635 177.176 7.27 177.016 6.94C176.856 6.6 176.631 6.31 176.341 6.07C176.051 5.83 175.711 5.645 175.321 5.515C174.941 5.385 174.531 5.32 174.091 5.32C173.501 5.32 172.966 5.435 172.486 5.665C172.016 5.895 171.641 6.215 171.361 6.625C171.081 7.025 170.941 7.495 170.941 8.035ZM172.621 8.215C172.621 7.925 172.681 7.67 172.801 7.45C172.931 7.22 173.106 7.04 173.326 6.91C173.556 6.78 173.811 6.715 174.091 6.715C174.381 6.715 174.636 6.78 174.856 6.91C175.076 7.04 175.246 7.22 175.366 7.45C175.496 7.67 175.561 7.925 175.561 8.215C175.561 8.505 175.496 8.765 175.366 8.995C175.236 9.215 175.056 9.39 174.826 9.52C174.606 9.64 174.361 9.7 174.091 9.7C173.821 9.7 173.576 9.64 173.356 9.52C173.136 9.39 172.956 9.215 172.816 8.995C172.686 8.765 172.621 8.505 172.621 8.215ZM170.566 13.15C170.566 13.59 170.656 13.995 170.836 14.365C171.016 14.735 171.266 15.055 171.586 15.325C171.916 15.595 172.291 15.805 172.711 15.955C173.141 16.105 173.601 16.18 174.091 16.18C174.581 16.18 175.036 16.105 175.456 15.955C175.886 15.805 176.261 15.595 176.581 15.325C176.911 15.055 177.166 14.735 177.346 14.365C177.536 13.995 177.631 13.59 177.631 13.15C177.631 12.64 177.526 12.195 177.316 11.815C177.116 11.435 176.846 11.12 176.506 10.87C176.166 10.62 175.786 10.435 175.366 10.315C174.946 10.185 174.521 10.12 174.091 10.12C173.661 10.12 173.236 10.185 172.816 10.315C172.396 10.435 172.016 10.62 171.676 10.87C171.336 11.12 171.066 11.435 170.866 11.815C170.666 12.195 170.566 12.64 170.566 13.15ZM172.306 12.91C172.306 12.58 172.391 12.28 172.561 12.01C172.731 11.74 172.951 11.53 173.221 11.38C173.491 11.22 173.781 11.14 174.091 11.14C174.401 11.14 174.691 11.22 174.961 11.38C175.241 11.53 175.466 11.74 175.636 12.01C175.806 12.28 175.891 12.58 175.891 12.91C175.891 13.29 175.806 13.615 175.636 13.885C175.466 14.145 175.241 14.345 174.961 14.485C174.691 14.625 174.401 14.695 174.091 14.695C173.781 14.695 173.491 14.625 173.221 14.485C172.951 14.345 172.731 14.145 172.561 13.885C172.391 13.615 172.306 13.29 172.306 12.91ZM180.483 13.855C180.483 13.635 180.533 13.45 180.633 13.3C180.733 13.15 180.888 13.035 181.098 12.955C181.318 12.865 181.598 12.82 181.938 12.82C182.328 12.82 182.698 12.87 183.048 12.97C183.398 13.07 183.728 13.23 184.038 13.45V12.625C183.948 12.515 183.793 12.395 183.573 12.265C183.353 12.125 183.073 12.005 182.733 11.905C182.403 11.805 182.008 11.755 181.548 11.755C180.978 11.755 180.493 11.845 180.093 12.025C179.693 12.205 179.383 12.46 179.163 12.79C178.953 13.11 178.848 13.495 178.848 13.945C178.848 14.415 178.958 14.815 179.178 15.145C179.398 15.475 179.693 15.725 180.063 15.895C180.433 16.065 180.833 16.15 181.263 16.15C181.663 16.15 182.053 16.08 182.433 15.94C182.823 15.79 183.143 15.57 183.393 15.28C183.653 14.98 183.783 14.61 183.783 14.17L183.543 13.27C183.543 13.62 183.463 13.92 183.303 14.17C183.143 14.42 182.928 14.61 182.658 14.74C182.388 14.87 182.093 14.935 181.773 14.935C181.523 14.935 181.298 14.895 181.098 14.815C180.908 14.725 180.758 14.6 180.648 14.44C180.538 14.28 180.483 14.085 180.483 13.855ZM179.973 10.9C180.073 10.83 180.223 10.745 180.423 10.645C180.633 10.545 180.878 10.455 181.158 10.375C181.438 10.295 181.743 10.255 182.073 10.255C182.283 10.255 182.478 10.275 182.658 10.315C182.838 10.355 182.993 10.42 183.123 10.51C183.263 10.6 183.368 10.72 183.438 10.87C183.508 11.01 183.543 11.185 183.543 11.395V16H185.133V11.08C185.133 10.62 185.008 10.235 184.758 9.925C184.508 9.605 184.163 9.36 183.723 9.19C183.293 9.02 182.793 8.935 182.223 8.935C181.583 8.935 181.018 9.025 180.528 9.205C180.038 9.385 179.633 9.57 179.313 9.76L179.973 10.9ZM196.891 11.62C196.891 11.05 196.811 10.57 196.651 10.18C196.491 9.78 196.251 9.475 195.931 9.265C195.611 9.055 195.201 8.95 194.701 8.95C194.241 8.95 193.826 9.055 193.456 9.265C193.086 9.475 192.781 9.78 192.541 10.18C192.441 9.91 192.296 9.685 192.106 9.505C191.926 9.325 191.706 9.19 191.446 9.1C191.186 9 190.886 8.95 190.546 8.95C190.256 8.95 189.986 8.995 189.736 9.085C189.496 9.165 189.281 9.29 189.091 9.46C188.911 9.63 188.751 9.845 188.611 10.105V9.1H187.021V16H188.611V11.8C188.611 11.47 188.666 11.19 188.776 10.96C188.886 10.73 189.041 10.555 189.241 10.435C189.451 10.315 189.696 10.255 189.976 10.255C190.236 10.255 190.451 10.315 190.621 10.435C190.791 10.545 190.916 10.715 190.996 10.945C191.076 11.165 191.116 11.45 191.116 11.8V16H192.751V11.8C192.751 11.47 192.806 11.19 192.916 10.96C193.036 10.73 193.196 10.555 193.396 10.435C193.606 10.315 193.851 10.255 194.131 10.255C194.391 10.255 194.606 10.315 194.776 10.435C194.946 10.545 195.071 10.715 195.151 10.945C195.231 11.165 195.271 11.45 195.271 11.8V16H196.891V11.62ZM198 13.165H201.075V11.71H198V13.165ZM207.853 9.04C207.853 9.47 207.758 9.85 207.568 10.18C207.388 10.51 207.138 10.77 206.818 10.96C206.508 11.15 206.148 11.245 205.738 11.245C205.338 11.245 204.973 11.15 204.643 10.96C204.323 10.77 204.068 10.51 203.878 10.18C203.698 9.85 203.608 9.47 203.608 9.04C203.608 8.61 203.698 8.235 203.878 7.915C204.068 7.585 204.323 7.33 204.643 7.15C204.973 6.96 205.338 6.865 205.738 6.865C206.148 6.865 206.508 6.96 206.818 7.15C207.138 7.33 207.388 7.585 207.568 7.915C207.758 8.235 207.853 8.61 207.853 9.04ZM205.363 15.985L208.693 11.515C208.953 11.175 209.168 10.8 209.338 10.39C209.508 9.98 209.593 9.53 209.593 9.04C209.593 8.26 209.423 7.595 209.083 7.045C208.743 6.485 208.278 6.06 207.688 5.77C207.108 5.47 206.458 5.32 205.738 5.32C205.018 5.32 204.363 5.47 203.773 5.77C203.193 6.06 202.733 6.485 202.393 7.045C202.053 7.595 201.883 8.26 201.883 9.04C201.883 9.54 201.968 10 202.138 10.42C202.318 10.83 202.553 11.19 202.843 11.5C203.143 11.8 203.483 12.035 203.863 12.205C204.243 12.365 204.638 12.445 205.048 12.445C205.398 12.445 205.703 12.405 205.963 12.325C206.233 12.235 206.483 12.065 206.713 11.815L206.443 11.86L203.113 15.985H205.363ZM212.649 19.3V9.1H211.014V19.3H212.649ZM218.364 12.55C218.364 11.78 218.209 11.125 217.899 10.585C217.589 10.045 217.179 9.635 216.669 9.355C216.159 9.065 215.604 8.92 215.004 8.92C214.564 8.92 214.164 9.005 213.804 9.175C213.454 9.345 213.149 9.59 212.889 9.91C212.639 10.22 212.444 10.6 212.304 11.05C212.174 11.49 212.109 11.99 212.109 12.55C212.109 13.11 212.174 13.615 212.304 14.065C212.444 14.505 212.639 14.885 212.889 15.205C213.149 15.515 213.454 15.755 213.804 15.925C214.164 16.095 214.564 16.18 215.004 16.18C215.604 16.18 216.159 16.04 216.669 15.76C217.179 15.47 217.589 15.055 217.899 14.515C218.209 13.975 218.364 13.32 218.364 12.55ZM216.684 12.55C216.684 13.01 216.589 13.4 216.399 13.72C216.209 14.04 215.959 14.285 215.649 14.455C215.339 14.625 214.994 14.71 214.614 14.71C214.384 14.71 214.149 14.665 213.909 14.575C213.679 14.475 213.469 14.335 213.279 14.155C213.089 13.975 212.934 13.75 212.814 13.48C212.704 13.21 212.649 12.9 212.649 12.55C212.649 12.2 212.704 11.89 212.814 11.62C212.934 11.35 213.089 11.125 213.279 10.945C213.469 10.765 213.679 10.63 213.909 10.54C214.149 10.44 214.384 10.39 214.614 10.39C214.994 10.39 215.339 10.475 215.649 10.645C215.959 10.815 216.209 11.06 216.399 11.38C216.589 11.7 216.684 12.09 216.684 12.55ZM229.762 11.62C229.762 11.05 229.682 10.57 229.522 10.18C229.362 9.78 229.122 9.475 228.802 9.265C228.482 9.055 228.072 8.95 227.572 8.95C227.112 8.95 226.697 9.055 226.327 9.265C225.957 9.475 225.652 9.78 225.412 10.18C225.312 9.91 225.167 9.685 224.977 9.505C224.797 9.325 224.577 9.19 224.317 9.1C224.057 9 223.757 8.95 223.417 8.95C223.127 8.95 222.857 8.995 222.607 9.085C222.367 9.165 222.152 9.29 221.962 9.46C221.782 9.63 221.622 9.845 221.482 10.105V9.1H219.892V16H221.482V11.8C221.482 11.47 221.537 11.19 221.647 10.96C221.757 10.73 221.912 10.555 222.112 10.435C222.322 10.315 222.567 10.255 222.847 10.255C223.107 10.255 223.322 10.315 223.492 10.435C223.662 10.545 223.787 10.715 223.867 10.945C223.947 11.165 223.987 11.45 223.987 11.8V16H225.622V11.8C225.622 11.47 225.677 11.19 225.787 10.96C225.907 10.73 226.067 10.555 226.267 10.435C226.477 10.315 226.722 10.255 227.002 10.255C227.262 10.255 227.477 10.315 227.647 10.435C227.817 10.545 227.942 10.715 228.022 10.945C228.102 11.165 228.142 11.45 228.142 11.8V16H229.762V11.62Z" fill="#041E42"/>
<g clip-path="url(#clip0_1_663)">
<path d="M25.8378 26.7609L21.2943 23.7752C20.2128 23.0645 18.8089 23.1263 17.8004 23.9285C16.9174 24.6314 15.6496 24.5595 14.8517 23.7614L10.2384 19.1483C9.4405 18.3502 9.36863 17.0824 10.0713 16.1994C10.8738 15.1909 10.9353 13.787 10.2246 12.7055L7.23888 8.16199C6.7168 7.36754 5.90702 6.89215 4.95853 6.82326C4.01005 6.75505 3.14053 7.10821 2.50927 7.81912C-0.988045 11.7573 -0.808831 17.7606 2.91714 21.4863L12.5135 31.0829C14.4521 33.0215 17.0071 33.9998 19.5674 33.9998C21.9274 33.9998 24.292 33.1682 26.1809 31.4908C26.8918 30.8593 27.2454 29.9895 27.1766 29.0413C27.1079 28.093 26.6325 27.2832 25.8378 26.7609ZM25.0138 30.1765C21.7704 33.057 16.8254 32.9091 13.7563 29.8401L4.15974 20.2437C1.09089 17.1747 0.943031 12.2297 3.82328 8.98596C4.06727 8.7113 4.37122 8.57237 4.72782 8.57237C4.76192 8.57237 4.79649 8.57374 4.8315 8.57626C5.23319 8.60533 5.54882 8.79072 5.77015 9.12718L8.75591 13.6707C9.053 14.123 9.02965 14.686 8.69594 15.1051C7.43641 16.6881 7.56527 18.9606 8.99555 20.3911L13.6089 25.0043C15.0392 26.4348 17.3117 26.5636 18.8947 25.3039C19.3138 24.9704 19.8768 24.9468 20.3291 25.2441L24.8726 28.2297H24.8724C25.2091 28.451 25.3945 28.7666 25.4235 29.1683C25.4526 29.57 25.3148 29.9092 25.0138 30.1765Z" fill="#041E42"/>
<path d="M29.7427 4.25749C29.5779 4.0927 29.3545 4 29.1215 4H23.8194C23.334 4 22.9405 4.39345 22.9405 4.87891C22.9405 5.36414 23.334 5.75758 23.8194 5.75758H27.0036L17.1922 15.5945C16.8493 15.938 16.8502 16.4944 17.1938 16.8373C17.3652 17.0083 17.5897 17.0939 17.8143 17.0939C18.0395 17.0939 18.2649 17.0078 18.4366 16.8357L28.2426 7.0043L28.2424 10.1805C28.2424 10.666 28.6358 11.0594 29.121 11.0594H29.1213C29.6065 11.0594 29.9999 10.666 29.9999 10.1805L30.0002 4.87868C30.0002 4.6459 29.9077 4.42229 29.7427 4.25749Z" fill="#041E42"/>
</g>
<defs>
<clipPath id="clip0_1_663">
<rect width="30" height="30" fill="white" transform="translate(0 4)"/>
</clipPath>
</defs>
</svg>
